<svg width="17" height="16" viewBox="0 0 17 16" fill="none" xmlns="http://www.w3.org/2000/svg">
<path d="M11.5039 15.7699C12.3986 15.6276 13.2939 15.426 14.1098 15.0831C15.0369 14.6936 15.8128 14.1652 16.3869 13.3516C16.5724 13.0889 16.7271 12.8204 16.8197 12.5114C16.9218 12.1704 17.0062 11.829 16.9996 11.4683C16.9908 10.9891 16.873 10.5305 16.684 10.0934C16.5544 9.79423 16.3644 9.55366 16.1563 9.30201C15.8344 8.95686 15.4648 8.67541 15.046 8.44024C14.6734 8.23105 14.2796 8.10238 13.8504 7.97401C14.222 7.4986 14.4677 6.85805 14.3957 6.2698C14.2593 5.15479 13.4536 4.39444 12.4957 3.84708L11.6387 3.35708C11.1686 3.08831 10.6344 2.61638 10.4358 2.11783C10.3148 1.81356 10.3488 1.50549 10.4829 1.20883C10.618 0.909953 10.5997 0.57526 10.3894 0.31695C10.1221 -0.0110874 9.6445 -0.0551429 9.22676 0.0523014C8.15542 0.32836 7.15506 0.846564 6.41182 1.6478C6.12591 1.95619 5.88678 2.27979 5.70817 2.65505C5.38693 3.30764 5.24398 4.06133 5.43993 4.78365C4.51579 4.85116 3.58446 5.20519 2.95801 5.8676C2.16571 6.70528 2.08621 7.87703 2.77645 8.80472C1.99298 8.99045 1.2504 9.35304 0.724379 9.91435C-0.361358 11.1333 -0.176532 12.7656 0.944863 13.8911C1.25007 14.1972 1.57099 14.4511 1.94326 14.6736C2.37278 14.9303 2.80491 15.1319 3.28317 15.297C4.81871 15.8269 6.28163 15.9582 7.89698 16H8.65232C9.60819 15.9765 10.5448 15.923 11.5039 15.7702V15.7699Z" fill="white"/>
</svg>
