<svg width="60" height="60" viewBox="0 0 60 60" fill="none" xmlns="http://www.w3.org/2000/svg">
<path d="M17.1141 52.8896C19.1097 54.3592 21.4004 55.4775 23.7948 56.1535C26.0241 56.7832 28.3437 57.0838 30.6634 57.0012C34.147 56.8769 37.3122 55.9795 40.3927 54.3653C41.9739 53.5371 43.4396 52.5248 44.7732 51.3374C46.1207 50.1371 47.249 48.7472 48.2011 47.2145C49.3913 45.2981 50.2039 43.1831 50.6663 40.9745C50.9084 39.8188 51.0366 38.6788 51.0863 37.5031V35.4383C51.0428 34.2687 50.895 33.1426 50.6881 31.9909L50.1158 29.3455C49.6395 27.5384 49.0594 25.7888 48.3316 24.0715C48.2317 23.8361 48.1341 23.6203 47.9244 23.4747C47.6628 23.2934 47.1698 23.9549 46.9222 24.2873C46.4938 24.8618 45.8056 25.5964 45.1402 25.2009C44.9556 25.091 44.8189 24.9003 44.7665 24.6934L44.4737 23.5444C44.1652 22.1283 43.7497 20.7741 43.2015 19.4249C41.6933 15.7131 39.2883 12.2802 36.5749 9.35988L35.6145 8.36765L34.9084 7.66545C33.7131 6.4769 32.4465 5.39989 31.0995 4.38201L29.6884 3.39759C29.4062 3.20071 29.0911 3.07299 28.7559 2.99992C28.1714 2.87276 27.8021 3.60563 27.7425 4.12099L27.5523 5.77749C27.4207 6.9203 27.3191 8.03691 27.0843 9.16578L26.5087 11.2211C26.2137 12.2735 25.7697 13.2479 25.2845 14.2245L24.7725 15.2541C24.5544 15.6925 24.2778 16.0801 23.9571 16.4499C23.783 16.6507 23.536 16.8007 23.2677 16.8113C22.6045 16.837 22.2437 16.0534 21.9826 15.4772L21.4394 14.2786L20.5102 12.4085C20.4031 12.1932 20.257 12.0058 20.0562 11.8686C19.6691 11.6048 18.9597 12.0867 18.5748 12.4754C17.5776 13.4816 16.683 14.5636 15.8363 15.7092C14.626 17.3462 13.5663 19.0691 12.6505 20.8907C11.6081 22.9638 10.7313 25.1189 10.1088 27.3572C9.5338 29.4253 9.16235 31.5179 8.99168 33.6502L8.92029 35.9135C8.84611 38.28 9.42951 41.4341 10.2578 43.6645C11.3392 46.5759 12.9115 49.0802 15.1559 51.2269C15.785 51.8287 16.4158 52.3759 17.1152 52.8912L17.1141 52.8896Z" fill="url(#paint0_linear_0_7)"/>
<path d="M34.9202 50.0702C36.4456 49.8197 37.9721 49.465 39.3632 48.8615C40.9438 48.1761 42.2668 47.2463 43.2456 45.8146C43.5618 45.3522 43.8257 44.8798 43.9835 44.336C44.1575 43.7359 44.3014 43.1352 44.2903 42.5005C44.2752 41.6572 44.0744 40.8501 43.752 40.081C43.5312 39.5545 43.2071 39.1311 42.8524 38.6883C42.3036 38.0809 41.6733 37.5856 40.9594 37.1718C40.3241 36.8037 39.6526 36.5772 38.9209 36.3513C39.5545 35.5147 39.9733 34.3875 39.8506 33.3523C39.618 31.3902 38.2443 30.0522 36.6112 29.0889L35.15 28.2267C34.3485 27.7537 33.4377 26.9232 33.0991 26.0459C32.8928 25.5105 32.9508 24.9683 33.1794 24.4463C33.4098 23.9203 33.3786 23.3314 33.0199 22.8768C32.5643 22.2995 31.7499 22.222 31.0377 22.4111C29.2111 22.8969 27.5055 23.8088 26.2383 25.2188C25.7509 25.7615 25.3431 26.3309 25.0386 26.9913C24.4909 28.1397 24.2472 29.466 24.5813 30.7371C23.0056 30.8559 21.4177 31.4789 20.3497 32.6446C18.9988 34.1187 18.8633 36.1807 20.0401 37.8132C18.7043 38.14 17.4382 38.7781 16.5414 39.7658C14.6902 41.9109 15.0054 44.7833 16.9173 46.7639C17.4377 47.3026 17.9848 47.7494 18.6195 48.1409C19.3519 48.5927 20.0886 48.9474 20.9041 49.238C23.5221 50.1706 26.0163 50.4015 28.7705 50.4751H30.0583C31.688 50.4338 33.2849 50.3395 34.9202 50.0707V50.0702Z" fill="#FEE4DB"/>
<defs>
<linearGradient id="paint0_linear_0_7" x1="30.0001" y1="2.98535" x2="30.0001" y2="57.0146" gradientUnits="userSpaceOnUse">
<stop stop-color="#FD622B"/>
<stop offset="1" stop-color="#FE3F01"/>
</linearGradient>
</defs>
</svg>
